v -5 -14 20
vn 0.04980177805 0.01717307046 0.9986114502
v -5 -14 10.00000095
vn 0.1026836261 0.0354081057 -0.994083643
v -5 15.00000095 20
vn 0.1707624495 0.5593942404 0.811121583
v -5 15.00000095 9.999999046
vn 0.09902385622 0.3243884146 -0.9407265186
v -100 -15.00000095 10.00000095
vn -0.08179033548 -0.5452688932 -0.8342614174
v -100 -15.00000095 20
vn -0.1184409186 -0.7896060944 0.6020746827
v -100 15.00000095 9.999999046
vn -0.1008638069 0.3194020391 -0.9422360659
v -100 15.00000095 20
vn -0.05269769579 0.1668760777 0.9845685959
v 5 -14 10.00000095
vn -0.04980177805 0.01717298292 -0.9986114502
v 5 -14 20
vn -0.1026836261 0.03540819138 0.994083643
v 100 -15.00000095 20
vn 0.08179033548 -0.5452688336 0.834261477
v 100 -15.00000095 10.00000095
vn 0.1184409186 -0.789606154 -0.6020746231
v 100 15.00000095 20
vn 0.1008638069 0.3194020987 0.9422360659
v 100 15.00000095 9.999999046
vn 0.05269769579 0.1668759882 -0.9845685959
v 5 15.00000095 20
vn -0.09902385622 0.324388504 0.9407265186
v 5 15.00000095 9.999999046
vn -0.1707624495 0.5593941808 -0.8111216426
# mm_gid 0
g mmGroup0
f 1//1 2//2 3//3 
f 3//3 2//2 4//4 
f 5//5 6//6 7//7 
f 7//7 6//6 8//8 
f 8//8 3//3 7//7 
f 7//7 3//3 4//4 
f 9//9 2//2 10//10 
f 10//10 2//2 1//1 
f 11//11 12//12 13//13 
f 13//13 12//12 14//14 
f 8//8 6//6 1//1 
f 1//1 6//6 11//11 
f 1//1 11//11 10//10 
f 10//10 11//11 13//13 
f 10//10 13//13 15//15 
f 1//1 3//3 8//8 
f 9//9 10//10 16//16 
f 16//16 10//10 15//15 
f 14//14 12//12 9//9 
f 9//9 12//12 5//5 
f 9//9 5//5 2//2 
f 2//2 5//5 7//7 
f 2//2 7//7 4//4 
f 9//9 16//16 14//14 
f 14//14 16//16 13//13 
f 13//13 16//16 15//15 
f 5//5 12//12 6//6 
f 6//6 12//12 11//11 
