v -95 -100 5
vn 0.7009039521 -0.6074501276 0.3738154471
v -95 -85 5
vn 0.1511685103 -0.9070110917 0.3930381238
v -95 -100 30
vn 0.9816299677 -0.1636050045 0.09816300124
v -95 -85 30
vn 0.04071129858 -0.9770711064 0.208984673
v -100 100 -5.960464478e-07
vn -0.1482752115 0.02965504304 -0.9885014296
v -100 -100 -5.960464478e-07
vn -0.148324132 -0.01483241376 -0.9888275862
v -100 100 30
vn -0.9922736287 0.02273960412 0.1219669655
v -100 -100 30
vn -0.9682300687 -0.04437721148 0.2460918128
v -95 85 5
vn 0.04068807513 0.976513803 0.2115779966
v -95 100 5
vn 0.8912638426 0.3862143457 0.237670362
v -95 85 30
vn 0.1273417622 0.7640506029 0.6324640512
v -95 100 30
vn 0.9320546389 0.3106848896 0.1864109337
v 85 85 5
vn 0.08276058733 0.7448452711 0.6620846987
v 85 85 30
vn 0.02722825296 0.9802170992 0.1960434318
v 85 75 5
vn 0.02568293549 -0.9245857 0.3801074624
v 85 75 30
vn 0.08643846214 -0.7779461741 0.6223569512
v -95 75 5
vn 0.28915748 -0.8674724102 0.4048204422
v -95 75 30
vn 0.08108107746 -0.9729729891 0.2162162215
v -95 45 5
vn 0.08068598807 0.9682318568 0.2366788983
v -95 45 30
vn 0.2467986643 0.7403960228 0.625223279
v 85 45 5
vn 0.08276058733 0.7448452711 0.6620846987
v 85 45 30
vn 0.02722825296 0.9802170992 0.1960434318
v 85 35 5
vn 0.02568293549 -0.9245857 0.3801074624
v 85 35 30
vn 0.08643846214 -0.7779461741 0.6223569512
v -95 35 5
vn 0.28915748 -0.8674724102 0.4048204422
v -95 35 30
vn 0.08108107746 -0.9729729891 0.2162162215
v -95 5 5
vn 0.08068598807 0.9682318568 0.2366788983
v -95 5 30
vn 0.2222771049 0.6668313146 0.7112867832
v 85 5 5
vn 0.08276058733 0.7448452711 0.6620846987
v 85 5 30
vn 0.02722825296 0.9802170992 0.1960434318
v 85 -5 5
vn 0.02568293549 -0.9245857 0.3801074624
v 85 -5 30
vn 0.08643846214 -0.7779461741 0.6223569512
v -95 -5 5
vn 0.28915748 -0.8674724102 0.4048204422
v -95 -5 30
vn 0.08108107746 -0.9729729891 0.2162162215
v -95 -35 5
vn 0.08068598807 0.9682318568 0.2366788983
v -95 -35 30
vn 0.2467986643 0.7403960228 0.625223279
v 85 -35 5
vn 0.08276058733 0.7448452711 0.6620846987
v 85 -35 30
vn 0.02722825296 0.9802170992 0.1960434318
v 85 -45 5
vn 0.02568293549 -0.9245857 0.3801074624
v 85 -45 30
vn 0.08643846214 -0.7779461741 0.6223569512
v -95 -45 5
vn 0.28915748 -0.8674724102 0.4048204422
v -95 -45 30
vn 0.08108107746 -0.9729729891 0.2162162215
v -95 -75 5
vn 0.08068598807 0.9682318568 0.2366788983
v -95 -75 30
vn 0.2467986643 0.7403960228 0.625223279
v 85 -75 5
vn 0.08276058733 0.7448452711 0.6620846987
v 85 -75 30
vn 0.02722825296 0.9802170992 0.1960434318
v 85 -85 5
vn 0.02568293549 -0.9245857 0.3801074624
v 85 -85 30
vn 0.08643846214 -0.7779461741 0.6223569512
v -85 95 5
vn -0.04240792245 -0.7633426189 0.6446003914
v 95 95 5
vn -0.08088751137 -0.9706501365 0.2264850438
v 95 65 5
vn -0.2868745327 0.8606235981 0.4207493365
v -85 65 5
vn -0.02537547983 0.9135172963 0.4060076773
v -85 55 5
vn -0.08551070094 -0.7695962787 0.632779181
v 95 55 5
vn -0.08088751137 -0.9706501365 0.2264850438
v 95 25 5
vn -0.2868745327 0.8606235981 0.4207493365
v -85 25 5
vn -0.02537547983 0.9135172963 0.4060076773
v -85 15.00000095 5
vn -0.08551070094 -0.7695962787 0.632779181
v 95 15.00000095 5
vn -0.08088751137 -0.9706501365 0.2264850438
v 95 -15.00000095 5
vn -0.2868745327 0.8606235981 0.4207493365
v -85 -15.00000095 5
vn -0.02537547983 0.9135172963 0.4060076773
v -85 -25 5
vn -0.08551070094 -0.7695962787 0.632779181
v 95 -25 5
vn -0.08088751137 -0.9706501365 0.2264850438
v 95 -55 5
vn -0.2868745327 0.8606235981 0.4207493365
v -85 -55 5
vn -0.02537547983 0.9135172963 0.4060076773
v -85 -65 5
vn -0.08551070094 -0.7695962787 0.632779181
v 95 -65 5
vn -0.08088751137 -0.9706501365 0.2264850438
v 95 -95 5
vn -0.2868745327 0.8606235981 0.4207493365
v -85 -95 5
vn -0.01279408578 0.9211741686 0.3889402151
v -85 -100 5
vn -0.02226597257 -0.9997421503 0.004453194328
v -85 100 5
vn -0.01113505661 0.9999280572 0.004454022739
v -85 100 30
vn -0.05021766201 0.9290267825 0.3665889502
v -85 95 30
vn -0.01381864119 -0.9949421883 0.09949421883
v 95 95 30
vn -0.2919336557 -0.8758009672 0.3843792975
v 95 65 30
vn -0.08108107746 0.9729729891 0.2162162215
v -85 65 30
vn -0.08643846214 0.7779461741 0.6223569512
v -85 55 30
vn -0.02722825296 -0.9802170992 0.1960434318
v 95 55 30
vn -0.2467986643 -0.7403960228 0.625223279
v 95 25 30
vn -0.08108107746 0.9729729891 0.2162162215
v -85 25 30
vn -0.08643846214 0.7779461741 0.6223569512
v -85 15.00000095 30
vn -0.02722825296 -0.9802170992 0.1960434318
v 95 15.00000095 30
vn -0.2222771049 -0.6668313146 0.7112867832
v 95 -15.00000095 30
vn -0.08108107746 0.9729729891 0.2162162215
v -85 -15.00000095 30
vn -0.08643846214 0.7779461741 0.6223569512
v -85 -25 30
vn -0.02722825296 -0.9802170992 0.1960434318
v 95 -25 30
vn -0.2467986643 -0.7403960228 0.625223279
v 95 -55 30
vn -0.08108107746 0.9729729891 0.2162162215
v -85 -55 30
vn -0.08643846214 0.7779461741 0.6223569512
v -85 -65 30
vn -0.02722825296 -0.9802170992 0.1960434318
v 95 -65 30
vn -0.2467986643 -0.7403960228 0.625223279
v 95 -95 30
vn -0.08112820983 0.9735384583 0.2136376202
v -85 -95 30
vn -0.05439605191 0.9791288376 0.1958257854
v -85 -100 30
vn -0.02513260953 -0.9299066067 0.3669361174
v 100 100 30
vn 0.4983824492 0.8451735973 0.1931232065
v 100 100 -5.960464478e-07
vn 0.1478565633 0.08070504665 -0.9857104421
v 100 -100 -5.960464478e-07
vn 0.1464328468 -0.1598558575 -0.9762189984
v 100 -100 30
vn 0.7534570098 -0.6388687491 0.1554004997
# mm_gid 0
g mmGroup0
f 1//1 2//2 3//3 
f 3//3 2//2 4//4 
f 5//5 6//6 7//7 
f 7//7 6//6 8//8 
f 9//9 10//10 11//11 
f 11//11 10//10 12//12 
f 13//13 9//9 14//14 
f 14//14 9//9 11//11 
f 15//15 13//13 16//16 
f 16//16 13//13 14//14 
f 17//17 15//15 18//18 
f 18//18 15//15 16//16 
f 19//19 17//17 20//20 
f 20//20 17//17 18//18 
f 21//21 19//19 22//22 
f 22//22 19//19 20//20 
f 23//23 21//21 24//24 
f 24//24 21//21 22//22 
f 25//25 23//23 26//26 
f 26//26 23//23 24//24 
f 27//27 25//25 28//28 
f 28//28 25//25 26//26 
f 29//29 27//27 30//30 
f 30//30 27//27 28//28 
f 31//31 29//29 32//32 
f 32//32 29//29 30//30 
f 33//33 31//31 34//34 
f 34//34 31//31 32//32 
f 35//35 33//33 36//36 
f 36//36 33//33 34//34 
f 37//37 35//35 38//38 
f 38//38 35//35 36//36 
f 39//39 37//37 40//40 
f 40//40 37//37 38//38 
f 41//41 39//39 42//42 
f 42//42 39//39 40//40 
f 43//43 41//41 44//44 
f 44//44 41//41 42//42 
f 45//45 43//43 46//46 
f 46//46 43//43 44//44 
f 47//47 45//45 48//48 
f 48//48 45//45 46//46 
f 2//2 47//47 4//4 
f 4//4 47//47 48//48 
f 3//3 4//4 8//8 
f 8//8 4//4 44//44 
f 8//8 44//44 42//42 
f 4//4 48//48 44//44 
f 44//44 48//48 46//46 
f 8//8 42//42 36//36 
f 36//36 42//42 40//40 
f 36//36 40//40 38//38 
f 36//36 34//34 8//8 
f 8//8 34//34 28//28 
f 8//8 28//28 7//7 
f 7//7 28//28 26//26 
f 7//7 26//26 20//20 
f 20//20 26//26 24//24 
f 20//20 24//24 22//22 
f 34//34 32//32 28//28 
f 28//28 32//32 30//30 
f 20//20 18//18 7//7 
f 7//7 18//18 11//11 
f 7//7 11//11 12//12 
f 18//18 16//16 11//11 
f 11//11 16//16 14//14 
f 10//10 9//9 49//49 
f 49//49 9//9 13//13 
f 49//49 13//13 50//50 
f 50//50 13//13 51//51 
f 51//51 13//13 15//15 
f 51//51 15//15 52//52 
f 52//52 15//15 17//17 
f 52//52 17//17 19//19 
f 52//52 19//19 53//53 
f 53//53 19//19 21//21 
f 53//53 21//21 54//54 
f 54//54 21//21 55//55 
f 55//55 21//21 23//23 
f 55//55 23//23 56//56 
f 56//56 23//23 25//25 
f 56//56 25//25 27//27 
f 56//56 27//27 57//57 
f 57//57 27//27 29//29 
f 57//57 29//29 58//58 
f 58//58 29//29 59//59 
f 59//59 29//29 31//31 
f 59//59 31//31 60//60 
f 60//60 31//31 33//33 
f 60//60 33//33 35//35 
f 60//60 35//35 61//61 
f 61//61 35//35 37//37 
f 61//61 37//37 62//62 
f 62//62 37//37 63//63 
f 63//63 37//37 39//39 
f 63//63 39//39 64//64 
f 64//64 39//39 41//41 
f 64//64 41//41 43//43 
f 64//64 43//43 65//65 
f 65//65 43//43 45//45 
f 65//65 45//45 66//66 
f 66//66 45//45 67//67 
f 67//67 45//45 47//47 
f 67//67 47//47 68//68 
f 68//68 47//47 2//2 
f 68//68 2//2 1//1 
f 1//1 69//69 68//68 
f 49//49 70//70 10//10 
f 70//70 49//49 71//71 
f 71//71 49//49 72//72 
f 49//49 50//50 72//72 
f 72//72 50//50 73//73 
f 50//50 51//51 73//73 
f 73//73 51//51 74//74 
f 51//51 52//52 74//74 
f 74//74 52//52 75//75 
f 52//52 53//53 75//75 
f 75//75 53//53 76//76 
f 53//53 54//54 76//76 
f 76//76 54//54 77//77 
f 54//54 55//55 77//77 
f 77//77 55//55 78//78 
f 55//55 56//56 78//78 
f 78//78 56//56 79//79 
f 56//56 57//57 79//79 
f 79//79 57//57 80//80 
f 57//57 58//58 80//80 
f 80//80 58//58 81//81 
f 58//58 59//59 81//81 
f 81//81 59//59 82//82 
f 59//59 60//60 82//82 
f 82//82 60//60 83//83 
f 60//60 61//61 83//83 
f 83//83 61//61 84//84 
f 61//61 62//62 84//84 
f 84//84 62//62 85//85 
f 62//62 63//63 85//85 
f 85//85 63//63 86//86 
f 63//63 64//64 86//86 
f 86//86 64//64 87//87 
f 64//64 65//65 87//87 
f 87//87 65//65 88//88 
f 65//65 66//66 88//88 
f 88//88 66//66 89//89 
f 66//66 67//67 89//89 
f 89//89 67//67 90//90 
f 67//67 68//68 90//90 
f 90//90 68//68 91//91 
f 68//68 69//69 91//91 
f 91//91 69//69 92//92 
f 93//93 94//94 70//70 
f 70//70 94//94 5//5 
f 70//70 5//5 10//10 
f 10//10 5//5 7//7 
f 10//10 7//7 12//12 
f 70//70 71//71 93//93 
f 95//95 94//94 96//96 
f 96//96 94//94 93//93 
f 95//95 69//69 6//6 
f 6//6 69//69 1//1 
f 6//6 1//1 8//8 
f 8//8 1//1 3//3 
f 95//95 96//96 69//69 
f 69//69 96//96 92//92 
f 72//72 73//73 71//71 
f 71//71 73//73 93//93 
f 93//93 73//73 74//74 
f 93//93 74//74 77//77 
f 77//77 74//74 75//75 
f 77//77 75//75 76//76 
f 77//77 78//78 93//93 
f 93//93 78//78 81//81 
f 93//93 81//81 96//96 
f 96//96 81//81 82//82 
f 96//96 82//82 85//85 
f 85//85 82//82 83//83 
f 85//85 83//83 84//84 
f 78//78 79//79 81//81 
f 81//81 79//79 80//80 
f 85//85 86//86 96//96 
f 96//96 86//86 89//89 
f 96//96 89//89 90//90 
f 86//86 87//87 89//89 
f 89//89 87//87 88//88 
f 91//91 92//92 90//90 
f 90//90 92//92 96//96 
f 5//5 94//94 6//6 
f 6//6 94//94 95//95 
